<svg width="105" height="37" viewBox="0 0 105 37" fill="none" xmlns="http://www.w3.org/2000/svg">
<path d="M16.1739 23V13.952H17.4089V17.696H22.5699V13.952H23.8049V23H22.5699V18.801H17.4089V23H16.1739ZM28.7397 23.182C28.0811 23.182 27.5091 23.039 27.0237 22.753C26.5471 22.467 26.1787 22.0597 25.9187 21.531C25.6587 21.0023 25.5287 20.3783 25.5287 19.659C25.5287 18.983 25.6544 18.385 25.9057 17.865C26.1657 17.3363 26.5297 16.9203 26.9977 16.617C27.4744 16.3137 28.0421 16.162 28.7007 16.162C29.3334 16.162 29.8664 16.305 30.2997 16.591C30.7331 16.8683 31.0624 17.2583 31.2877 17.761C31.5131 18.255 31.6257 18.8357 31.6257 19.503V20.049H26.7247C26.7854 20.725 26.9891 21.245 27.3357 21.609C27.6824 21.9643 28.1547 22.142 28.7527 22.142C29.1427 22.142 29.4721 22.077 29.7407 21.947C30.0181 21.8083 30.2001 21.6307 30.2867 21.414H31.4827C31.3267 21.9513 31.0017 22.3803 30.5077 22.701C30.0137 23.0217 29.4244 23.182 28.7397 23.182ZM28.6877 17.202C28.1417 17.202 27.6997 17.371 27.3617 17.709C27.0324 18.0383 26.8287 18.4977 26.7507 19.087H30.4557C30.4297 18.5237 30.2694 18.0687 29.9747 17.722C29.6887 17.3753 29.2597 17.202 28.6877 17.202ZM33.1811 23V13.575H34.3381V23H33.1811ZM36.2914 23V16.344H37.4224V17.163C37.8644 16.4957 38.4971 16.162 39.3204 16.162C39.7537 16.162 40.1307 16.2703 40.4514 16.487C40.7807 16.695 41.0364 16.994 41.2184 17.384C41.4524 16.9853 41.7557 16.682 42.1284 16.474C42.5097 16.266 42.9214 16.162 43.3634 16.162C44.0394 16.162 44.5811 16.4003 44.9884 16.877C45.3957 17.3537 45.5994 18.0037 45.5994 18.827V23H44.4424V18.983C44.4424 18.437 44.3211 18.008 44.0784 17.696C43.8357 17.384 43.5021 17.228 43.0774 17.228C42.6527 17.228 42.2887 17.384 41.9854 17.696C41.6821 18.008 41.5304 18.437 41.5304 18.983V23H40.3734V18.983C40.3734 18.437 40.2477 18.008 39.9964 17.696C39.7537 17.384 39.4244 17.228 39.0084 17.228C38.5837 17.228 38.2154 17.384 37.9034 17.696C37.6001 18.008 37.4484 18.437 37.4484 18.983V23H36.2914ZM50.2837 23.182C49.625 23.182 49.053 23.039 48.5677 22.753C48.091 22.467 47.7227 22.0597 47.4627 21.531C47.2027 21.0023 47.0727 20.3783 47.0727 19.659C47.0727 18.983 47.1983 18.385 47.4497 17.865C47.7097 17.3363 48.0737 16.9203 48.5417 16.617C49.0183 16.3137 49.586 16.162 50.2447 16.162C50.8773 16.162 51.4103 16.305 51.8437 16.591C52.277 16.8683 52.6063 17.2583 52.8317 17.761C53.057 18.255 53.1697 18.8357 53.1697 19.503V20.049H48.2687C48.3293 20.725 48.533 21.245 48.8797 21.609C49.2263 21.9643 49.6987 22.142 50.2967 22.142C50.6867 22.142 51.016 22.077 51.2847 21.947C51.562 21.8083 51.744 21.6307 51.8307 21.414H53.0267C52.8707 21.9513 52.5457 22.3803 52.0517 22.701C51.5577 23.0217 50.9683 23.182 50.2837 23.182ZM50.2317 17.202C49.6857 17.202 49.2437 17.371 48.9057 17.709C48.5763 18.0383 48.3727 18.4977 48.2947 19.087H51.9997C51.9737 18.5237 51.8133 18.0687 51.5187 17.722C51.2327 17.3753 50.8037 17.202 50.2317 17.202ZM57.117 23.052C56.4843 23.052 55.999 22.8787 55.661 22.532C55.323 22.1767 55.154 21.661 55.154 20.985V17.384H53.971V16.344H55.154V14.225C55.5353 14.199 55.921 14.1253 56.311 14.004V16.344H57.767V17.384H56.311V20.881C56.311 21.245 56.3977 21.5267 56.571 21.726C56.753 21.9167 57.0043 22.012 57.325 22.012H57.767V23.052H57.117ZM62.3975 23V13.952H63.6325V17.839L67.8575 13.952H69.4435L64.6725 18.307L69.6645 23H67.9745L63.6325 18.918V23H62.3975ZM74.068 23.195C73.418 23.195 72.82 23.078 72.274 22.844C71.728 22.61 71.2557 22.2807 70.857 21.856C70.4583 21.4313 70.1463 20.933 69.921 20.361C69.7043 19.789 69.596 19.1607 69.596 18.476C69.596 17.7913 69.7043 17.163 69.921 16.591C70.1463 16.019 70.4583 15.5207 70.857 15.096C71.2557 14.6713 71.728 14.342 72.274 14.108C72.82 13.874 73.418 13.757 74.068 13.757C74.718 13.757 75.316 13.874 75.862 14.108C76.408 14.342 76.8803 14.6713 77.279 15.096C77.6777 15.5207 77.9853 16.019 78.202 16.591C78.4273 17.163 78.54 17.7913 78.54 18.476C78.54 19.1607 78.4273 19.789 78.202 20.361C77.9853 20.933 77.6777 21.4313 77.279 21.856C76.8803 22.2807 76.408 22.61 75.862 22.844C75.316 23.078 74.718 23.195 74.068 23.195ZM74.068 22.064C74.692 22.064 75.2467 21.9123 75.732 21.609C76.2173 21.3057 76.5943 20.8853 76.863 20.348C77.1403 19.802 77.279 19.178 77.279 18.476C77.279 17.774 77.1403 17.1543 76.863 16.617C76.5943 16.071 76.2173 15.6463 75.732 15.343C75.2467 15.0397 74.692 14.888 74.068 14.888C73.444 14.888 72.8893 15.0397 72.404 15.343C71.9273 15.6463 71.5503 16.071 71.273 16.617C70.9957 17.1543 70.857 17.774 70.857 18.476C70.857 19.178 70.9957 19.802 71.273 20.348C71.5503 20.8853 71.9273 21.3057 72.404 21.609C72.8893 21.9123 73.444 22.064 74.068 22.064ZM80.3487 23V13.952H83.6117C84.4524 13.952 85.2064 14.1383 85.8737 14.511C86.5497 14.875 87.0827 15.395 87.4727 16.071C87.8627 16.747 88.0577 17.5487 88.0577 18.476C88.0577 19.3947 87.8627 20.1963 87.4727 20.881C87.0827 21.557 86.5497 22.0813 85.8737 22.454C85.2064 22.818 84.4524 23 83.6117 23H80.3487ZM81.5837 21.895H83.5337C84.1404 21.895 84.6864 21.7607 85.1717 21.492C85.6657 21.2233 86.06 20.8333 86.3547 20.322C86.6494 19.8107 86.7967 19.1953 86.7967 18.476C86.7967 17.748 86.6494 17.1327 86.3547 16.63C86.06 16.1187 85.6657 15.7287 85.1717 15.46C84.6864 15.1913 84.1404 15.057 83.5337 15.057H81.5837V21.895Z" fill="#808080"/>
<rect x="0.503906" y="0.5" width="103" height="36" stroke="#808080"/>
</svg>
